<svg width="24" height="24" viewBox="0 0 24 24" fill="none" xmlns="http://www.w3.org/2000/svg">
<g id="icon/action/done_all_24px">
<g id="icon/action/done_all_24px_2">
<mask id="path-1-inside-1" fill="white">
<path fill-rule="evenodd" clip-rule="evenodd" d="M21.505 5.99439L11.625 15.8744L8.14498 12.4044C7.95815 12.2171 7.7045 12.1119 7.43998 12.1119C7.17546 12.1119 6.92181 12.2171 6.73498 12.4044C6.34498 12.7944 6.34498 13.4244 6.73498 13.8144L10.915 17.9944C11.305 18.3844 11.935 18.3844 12.325 17.9944L22.915 7.41439C23.305 7.02439 23.305 6.39439 22.915 6.00439H22.905C22.525 5.60439 21.895 5.60439 21.505 5.99439ZM17.265 6.00439C17.0781 5.81713 16.8245 5.7119 16.56 5.7119C16.2955 5.7119 16.0418 5.81713 15.855 6.00439L10.215 11.6444L11.625 13.0544L17.265 7.40439C17.645 7.02439 17.645 6.38439 17.265 6.00439ZM5.26498 18.0044L1.08498 13.8244C0.69498 13.4344 0.69498 12.7944 1.08498 12.4044C1.27181 12.2171 1.52546 12.1119 1.78998 12.1119C2.0545 12.1119 2.30815 12.2171 2.49498 12.4044L7.37498 17.3044L6.67498 18.0044C6.28498 18.3944 5.65498 18.3944 5.26498 18.0044Z"/>
</mask>
<path d="M11.625 15.8744L10.9189 16.5825L11.626 17.2876L12.3321 16.5815L11.625 15.8744ZM21.505 5.99439L20.7979 5.28728L20.7979 5.28728L21.505 5.99439ZM8.14498 12.4044L7.43708 13.1107L7.43889 13.1125L8.14498 12.4044ZM6.73498 12.4044L7.44209 13.1115L7.44288 13.1107L6.73498 12.4044ZM12.325 17.9944L11.6182 17.2869L11.6179 17.2873L12.325 17.9944ZM22.915 7.41439L23.6218 8.12183L23.6221 8.12149L22.915 7.41439ZM22.915 6.00439L23.6221 5.29728L23.3292 5.00439H22.915V6.00439ZM22.905 6.00439L22.18 6.69314L22.4757 7.00439H22.905V6.00439ZM17.265 6.00439L16.5571 6.7107L16.5579 6.71149L17.265 6.00439ZM15.855 6.00439L16.5621 6.71149L16.5629 6.7107L15.855 6.00439ZM10.215 11.6444L9.50787 10.9373L8.80077 11.6444L9.50787 12.3515L10.215 11.6444ZM11.625 13.0544L10.9179 13.7615L11.6256 14.4692L12.3327 13.7609L11.625 13.0544ZM17.265 7.40439L16.5579 6.69728L16.5572 6.69791L17.265 7.40439ZM1.08498 13.8244L1.79209 13.1173L1.79209 13.1173L1.08498 13.8244ZM5.26498 18.0044L5.97209 17.2973L5.97209 17.2973L5.26498 18.0044ZM1.08498 12.4044L1.79209 13.1115L1.79288 13.1107L1.08498 12.4044ZM2.49498 12.4044L3.20353 11.6987L3.20288 11.6981L2.49498 12.4044ZM7.37498 17.3044L8.08209 18.0115L8.78775 17.3058L8.08353 16.5987L7.37498 17.3044ZM6.67498 18.0044L5.96787 17.2973L5.96787 17.2973L6.67498 18.0044ZM12.3321 16.5815L22.2121 6.70149L20.7979 5.28728L10.9179 15.1673L12.3321 16.5815ZM7.43889 13.1125L10.9189 16.5825L12.3311 15.1663L8.85107 11.6963L7.43889 13.1125ZM7.43998 13.1119C7.43889 13.1119 7.43785 13.1115 7.43708 13.1107L8.85288 11.6981C8.47845 11.3228 7.97011 11.1119 7.43998 11.1119V13.1119ZM7.44288 13.1107C7.44211 13.1115 7.44107 13.1119 7.43998 13.1119V11.1119C6.90986 11.1119 6.40151 11.3228 6.02708 11.6981L7.44288 13.1107ZM7.44209 13.1073C7.44105 13.1062 7.44093 13.1059 7.44123 13.1064C7.4415 13.1068 7.44182 13.1074 7.44207 13.108C7.44254 13.1092 7.44248 13.1096 7.44248 13.1094C7.44248 13.1092 7.44254 13.1096 7.44207 13.1108C7.44182 13.1114 7.4415 13.112 7.44123 13.1124C7.44093 13.1128 7.44105 13.1125 7.44209 13.1115L6.02787 11.6973C5.24735 12.4778 5.24735 13.741 6.02787 14.5215L7.44209 13.1073ZM11.6221 17.2873L7.44209 13.1073L6.02787 14.5215L10.2079 18.7015L11.6221 17.2873ZM11.6179 17.2873C11.6168 17.2883 11.6165 17.2884 11.617 17.2881C11.6174 17.2879 11.618 17.2876 11.6186 17.2873C11.6198 17.2868 11.6202 17.2869 11.62 17.2869C11.6197 17.2869 11.6202 17.2868 11.6214 17.2873C11.622 17.2876 11.6226 17.2879 11.623 17.2881C11.6234 17.2884 11.6231 17.2883 11.6221 17.2873L10.2079 18.7015C10.9884 19.482 12.2516 19.482 13.0321 18.7015L11.6179 17.2873ZM22.2082 6.70695L11.6182 17.2869L13.0318 18.7018L23.6218 8.12183L22.2082 6.70695ZM22.2079 6.71149C22.2089 6.71253 22.209 6.71284 22.2087 6.71238C22.2085 6.71198 22.2081 6.7114 22.2079 6.71076C22.2074 6.7096 22.2075 6.70915 22.2075 6.70939C22.2075 6.70962 22.2074 6.70917 22.2079 6.70801C22.2081 6.70738 22.2085 6.7068 22.2087 6.70639C22.209 6.70593 22.2089 6.70624 22.2079 6.70728L23.6221 8.12149C24.4026 7.34097 24.4026 6.0778 23.6221 5.29728L22.2079 6.71149ZM22.905 7.00439H22.915V5.00439H22.905V7.00439ZM22.2121 6.70149C22.2137 6.69989 22.2131 6.70086 22.2106 6.70188C22.2087 6.70266 22.2065 6.70314 22.2038 6.70312C22.2011 6.70311 22.1967 6.70256 22.1912 6.70025C22.185 6.69761 22.181 6.69418 22.18 6.69314L23.63 5.31564C22.8523 4.49707 21.5748 4.51036 20.7979 5.28728L22.2121 6.70149ZM16.56 6.7119C16.5589 6.7119 16.5578 6.71147 16.5571 6.7107L17.9729 5.29807C17.5984 4.9228 17.0901 4.7119 16.56 4.7119V6.7119ZM16.5629 6.7107C16.5621 6.71147 16.5611 6.7119 16.56 6.7119V4.7119C16.0299 4.7119 15.5215 4.9228 15.1471 5.29808L16.5629 6.7107ZM10.9221 12.3515L16.5621 6.71149L15.1479 5.29728L9.50787 10.9373L10.9221 12.3515ZM12.3321 12.3473L10.9221 10.9373L9.50787 12.3515L10.9179 13.7615L12.3321 12.3473ZM16.5572 6.69791L10.9172 12.3479L12.3327 13.7609L17.9727 8.11087L16.5572 6.69791ZM16.5579 6.71149C16.5529 6.70647 16.5503 6.70162 16.5496 6.69972C16.5491 6.69861 16.55 6.70039 16.55 6.70439C16.55 6.70838 16.5491 6.71017 16.5496 6.70905C16.5503 6.70716 16.5529 6.7023 16.5579 6.69728L17.9721 8.11149C18.7426 7.34097 18.7426 6.0678 17.9721 5.29728L16.5579 6.71149ZM0.377874 14.5315L4.55787 18.7115L5.97209 17.2973L1.79209 13.1173L0.377874 14.5315ZM0.377874 11.6973C-0.402651 12.4778 -0.402651 13.751 0.377874 14.5315L1.79209 13.1173C1.79181 13.117 1.79206 13.1172 1.79248 13.1179C1.79286 13.1184 1.79305 13.1189 1.79309 13.119C1.79311 13.119 1.79295 13.1186 1.79278 13.1178C1.79261 13.1169 1.79248 13.1157 1.79248 13.1144C1.79248 13.1131 1.79261 13.1119 1.79278 13.111C1.79295 13.1102 1.79311 13.1098 1.79309 13.1098C1.79305 13.1099 1.79286 13.1103 1.79248 13.1109C1.79206 13.1116 1.79181 13.1118 1.79209 13.1115L0.377874 11.6973ZM1.78998 11.1119C1.25986 11.1119 0.75151 11.3228 0.377077 11.6981L1.79288 13.1107C1.79211 13.1115 1.79107 13.1119 1.78998 13.1119V11.1119ZM3.20288 11.6981C2.82845 11.3228 2.3201 11.1119 1.78998 11.1119V13.1119C1.78889 13.1119 1.78785 13.1115 1.78708 13.1107L3.20288 11.6981ZM8.08353 16.5987L3.20353 11.6987L1.78643 13.11L6.66643 18.01L8.08353 16.5987ZM7.38209 18.7115L8.08209 18.0115L6.66787 16.5973L5.96787 17.2973L7.38209 18.7115ZM4.55787 18.7115C5.3384 19.492 6.60156 19.492 7.38209 18.7115L5.96787 17.2973C5.96683 17.2983 5.96653 17.2984 5.96698 17.2981C5.96739 17.2979 5.96797 17.2976 5.9686 17.2973C5.96977 17.2968 5.97021 17.2969 5.96998 17.2969C5.96975 17.2969 5.9702 17.2968 5.97136 17.2973C5.97199 17.2976 5.97257 17.2979 5.97298 17.2981C5.97343 17.2984 5.97313 17.2983 5.97209 17.2973L4.55787 18.7115Z" fill="#200E32" mask="url(#path-1-inside-1)"/>
</g>
</g>
</svg>
