<svg width="13" height="13" viewBox="0 0 13 13" fill="none" xmlns="http://www.w3.org/2000/svg">
<path fill-rule="evenodd" clip-rule="evenodd" d="M5.01709 8.00648C4.92863 8.09494 4.822 8.15484 4.70893 8.18619C4.47173 8.25194 4.20621 8.19204 4.02064 8.00648C3.83507 7.8209 3.77517 7.55534 3.84095 7.31813C3.8723 7.20508 3.9322 7.09848 4.02064 7.01003L7.00998 4.0207C7.09842 3.93226 7.20503 3.87236 7.31808 3.84101C7.55529 3.77522 7.82084 3.83512 8.00642 4.0207C8.19199 4.20626 8.25189 4.47179 8.18613 4.70898C8.15479 4.82205 8.09488 4.92868 8.00642 5.01714L5.01709 8.00648ZM6.81993 8.32496C6.70686 8.3563 6.60023 8.41621 6.51177 8.50467L5.0171 9.99933C4.19503 10.8214 2.84983 10.8214 2.02776 9.99933C1.2057 9.17727 1.2057 7.83207 2.02776 7.01L3.52243 5.51533C3.61088 5.42689 3.67077 5.32028 3.70212 5.20723C3.74058 5.06857 3.73609 4.92023 3.68865 4.78383C3.65494 4.68689 3.59953 4.59599 3.52243 4.51889C3.44533 4.44179 3.35443 4.38638 3.25749 4.35267C3.00989 4.26656 2.72291 4.32197 2.52599 4.51889L1.03132 6.01356C-0.343773 7.38865 -0.343773 9.62069 1.03132 10.9958C2.40641 12.3709 4.63845 12.3709 6.01354 10.9958L7.50821 9.50111C7.70514 9.30419 7.76054 9.01721 7.67443 8.76961C7.64072 8.67267 7.58531 8.58177 7.50821 8.50467C7.43111 8.42757 7.34021 8.37216 7.24327 8.33845C7.10689 8.29102 6.95857 8.28652 6.81993 8.32496ZM4.35267 3.25749C4.38638 3.35443 4.44179 3.44533 4.51889 3.52243C4.59599 3.59953 4.68689 3.65494 4.78383 3.68865C4.92023 3.73609 5.06857 3.74058 5.20723 3.70212C5.32028 3.67077 5.42689 3.61087 5.51533 3.52243L7.01 2.02776C7.83207 1.2057 9.17727 1.2057 9.99933 2.02776C10.8214 2.84983 10.8214 4.19503 9.99934 5.0171L8.50467 6.51177C8.41621 6.60023 8.3563 6.70686 8.32496 6.81993C8.28652 6.95857 8.29102 7.10689 8.33845 7.24327C8.37216 7.34021 8.42757 7.43111 8.50467 7.50821C8.58177 7.58531 8.67267 7.64071 8.76961 7.67443C9.01721 7.76054 9.30419 7.70514 9.50111 7.50821L10.9958 6.01354C12.3709 4.63845 12.3709 2.40641 10.9958 1.03132C9.62069 -0.343773 7.38865 -0.343773 6.01356 1.03132L4.51889 2.52599C4.32197 2.72291 4.26656 3.00989 4.35267 3.25749Z" fill="#200E32"/>
</svg>
