<svg width="22" height="20" viewBox="0 0 22 20" fill="none" xmlns="http://www.w3.org/2000/svg">
<path d="M17 15V14.275H16.275V15H17ZM5 15H5.725V14.275H5V15ZM15 12H15.725V11.275H15V12ZM7 12V11.275H6.275V12H7ZM16 0.275H6V1.725H16V0.275ZM17.725 2C17.725 1.04959 16.9504 0.275 16 0.275V1.725C16.1496 1.725 16.275 1.85041 16.275 2H17.725ZM17.725 4V2H16.275V4H17.725ZM16 5.725C16.9504 5.725 17.725 4.95041 17.725 4H16.275C16.275 4.14959 16.1496 4.275 16 4.275V5.725ZM6 5.725H16V4.275H6V5.725ZM4.275 4C4.275 4.95041 5.04959 5.725 6 5.725V4.275C5.85041 4.275 5.725 4.14959 5.725 4H4.275ZM4.275 2V4H5.725V2H4.275ZM6 0.275C5.04959 0.275 4.275 1.04959 4.275 2H5.725C5.725 1.85041 5.85041 1.725 6 1.725V0.275ZM18 5.275H4V6.725H18V5.275ZM21.725 9C21.725 6.93959 20.0604 5.275 18 5.275V6.725C19.2596 6.725 20.275 7.74041 20.275 9H21.725ZM21.725 13V9H20.275V13H21.725ZM19 15.725C20.5004 15.725 21.725 14.5004 21.725 13H20.275C20.275 13.6996 19.6996 14.275 19 14.275V15.725ZM17 15.725H19V14.275H17V15.725ZM17.725 17V15H16.275V17H17.725ZM15 19.725C16.5004 19.725 17.725 18.5004 17.725 17H16.275C16.275 17.6996 15.6996 18.275 15 18.275V19.725ZM7 19.725H15V18.275H7V19.725ZM4.275 17C4.275 18.5004 5.49959 19.725 7 19.725V18.275C6.30041 18.275 5.725 17.6996 5.725 17H4.275ZM4.275 15V17H5.725V15H4.275ZM3 15.725H5V14.275H3V15.725ZM0.275 13C0.275 14.5004 1.49959 15.725 3 15.725V14.275C2.30041 14.275 1.725 13.6996 1.725 13H0.275ZM0.275 9V13H1.725V9H0.275ZM4 5.275C1.93959 5.275 0.275 6.93959 0.275 9H1.725C1.725 7.74041 2.74041 6.725 4 6.725V5.275ZM14 16.275H8V17.725H14V16.275ZM14.275 16C14.275 16.1496 14.1496 16.275 14 16.275V17.725C14.9504 17.725 15.725 16.9504 15.725 16H14.275ZM14.275 12V16H15.725V12H14.275ZM7 12.725H15V11.275H7V12.725ZM7.725 16V12H6.275V16H7.725ZM8 16.275C7.85041 16.275 7.725 16.1496 7.725 16H6.275C6.275 16.9504 7.04959 17.725 8 17.725V16.275ZM16.275 9C16.275 9.95041 17.0496 10.725 18 10.725V9.275C17.8504 9.275 17.725 9.14959 17.725 9H16.275ZM18 7.275C17.0496 7.275 16.275 8.04959 16.275 9H17.725C17.725 8.85041 17.8504 8.725 18 8.725V7.275ZM19.725 9C19.725 8.04959 18.9504 7.275 18 7.275V8.725C18.1496 8.725 18.275 8.85041 18.275 9H19.725ZM18 10.725C18.9504 10.725 19.725 9.95041 19.725 9H18.275C18.275 9.14959 18.1496 9.275 18 9.275V10.725Z" fill="#200E32"/>
</svg>
