<svg width="66" height="66" viewBox="0 0 66 66" fill="none" xmlns="http://www.w3.org/2000/svg">
<path d="M20.1529 56.7868C24.0252 58.5378 25.7209 65.4797 25.7209 65.4797L54.0578 65.4018C53.5262 64.2996 52.9228 63.2334 52.2515 62.2103C51.7151 61.1165 51.2648 59.9826 50.9046 58.8189C50.2415 56.5738 49.7824 54.2734 49.5329 51.9458C49.112 48.3695 49.6509 44.7455 51.0943 41.4465C52.3666 38.545 54.576 36.2465 56.2615 33.59C57.9288 30.9953 58.8264 27.9812 58.8502 24.897C58.9132 21.7727 58.5296 18.6554 57.7111 15.6396C56.6412 11.986 54.4084 8.78128 51.3517 6.51195C45.7611 2.12256 40.0485 -0.331796 32.8176 0.0362442C29.1991 0.288223 25.604 0.804404 22.0608 1.58066C18.2021 2.35738 14.1164 3.80019 11.347 6.7242C9.45788 8.74289 7.99838 11.1242 7.05697 13.7237C6.61572 15.0169 6.25675 16.3366 5.9822 17.6751C5.51957 19.1311 4.96179 20.5552 4.31247 21.938C4.12165 22.3593 4.03863 22.8213 4.07087 23.2826C4.28989 24.8451 6.63135 25.5146 6.64942 27.1279C6.62539 27.484 6.51579 27.8291 6.32992 28.1338C4.95637 31.0364 3.27027 33.7806 1.30154 36.3176C0.837537 36.8877 -0.107402 38.011 0.0100098 38.8171C0.0935528 39.3895 0.77996 39.8648 1.20332 40.1798C2.10649 40.8504 3.94556 41.3087 4.17474 42.519C4.2944 43.1352 4.22025 43.7733 3.96249 44.3456C3.33705 45.6631 2.645 46.3653 3.1361 46.7785C3.62719 47.1917 4.94243 48.1841 4.94243 48.1841C4.94243 48.1841 3.6938 49.7804 4.38473 50.2704C5.24386 50.88 6.33557 51.1611 6.62797 52.3025C6.71355 53.207 6.62307 54.1194 6.36153 54.9894C6.27277 55.8407 6.38411 56.7008 6.68667 57.5014C7.09418 59.1025 8.69363 60.0959 10.3095 59.7514C13.6419 58.9421 16.9278 57.9524 20.1529 56.7868Z" fill="#35495E"/>
<path d="M10.4159 18.5915C10.1184 18.5261 9.85998 18.3433 9.69927 18.0846C9.53856 17.8259 9.48919 17.5132 9.56239 17.2175C9.73981 16.4332 9.96221 15.6597 10.2285 14.9009C11.0137 12.7281 12.2303 10.7366 13.805 9.04614C15.6384 7.11337 18.6449 5.71346 22.7419 4.89835C23.3535 4.77677 23.9479 5.17405 24.0695 5.78571C24.1911 6.39737 23.7938 6.99178 23.1821 7.11337C19.5537 7.83477 16.9503 9.00776 15.4454 10.5973C14.0811 12.0648 13.0274 13.7928 12.3475 15.6776C12.1111 16.3564 11.9136 17.048 11.756 17.7493C11.6138 18.3486 11.0175 18.7233 10.4159 18.5915Z" fill="#3F5C6C"/>
<path d="M9.03033 23.7091C9.65383 23.7091 10.1593 23.2036 10.1593 22.5801C10.1593 21.9566 9.65383 21.4512 9.03033 21.4512C8.40682 21.4512 7.90137 21.9566 7.90137 22.5801C7.90137 23.2036 8.40682 23.7091 9.03033 23.7091Z" fill="#3F5C6C"/>
<path d="M61.1772 25.0525C58.4286 27.8092 54.6949 29.3571 50.802 29.3538C50.4182 29.3538 50.0456 29.3425 49.6731 29.3086L45.1572 28.2248C43.4787 27.5277 41.9467 26.5204 40.6414 25.2557L39.2415 23.709C35.7833 19.2895 35.1495 13.2843 37.6091 8.24035C40.0686 3.19637 45.1904 -0.00234206 50.802 0.000856889V14.6773L61.1772 25.0525Z" fill="#955BA5"/>
<path d="M65.4782 14.6774C65.4815 18.5702 63.9336 22.3039 61.1769 25.0525L50.8018 14.6774H65.4782Z" fill="#F0C419"/>
<path d="M65.4782 14.6774H50.8018V0.000976562C58.9073 0.000976563 65.4782 6.57185 65.4782 14.6774Z" fill="#E64C3C"/>
<path d="M46.2862 19.1932H48.5441C49.1676 19.1932 49.6731 19.6987 49.6731 20.3222V34.9987H45.1572V20.3222C45.1572 19.6987 45.6627 19.1932 46.2862 19.1932Z" fill="#2FA8CC"/>
<path d="M37.2544 23.7091H39.5124C40.1359 23.7091 40.6413 24.2146 40.6413 24.8381V34.9987H36.1255V24.8381C36.1255 24.2146 36.6309 23.7091 37.2544 23.7091Z" fill="#F0C419"/>
<path d="M28.2227 28.2249H30.4806C31.1041 28.2249 31.6096 28.7303 31.6096 29.3538V34.9986H27.0938V29.3538C27.0938 28.7303 27.5992 28.2249 28.2227 28.2249Z" fill="#2FA8CC"/>
<path d="M53.06 36.1275H23.7071C23.0836 36.1275 22.5781 35.6221 22.5781 34.9986C22.5781 34.3751 23.0836 33.8696 23.7071 33.8696H53.06C53.6835 33.8696 54.189 34.3751 54.189 34.9986C54.189 35.6221 53.6835 36.1275 53.06 36.1275Z" fill="#F29C1F"/>
</svg>
