<svg width="67" height="67" viewBox="0 0 67 67" fill="none" xmlns="http://www.w3.org/2000/svg">
<path d="M20.6859 57.5532C24.5829 59.3154 26.2894 66.3016 26.2894 66.3016L54.8066 66.2232C54.2717 65.1139 53.6644 64.0409 52.9888 63.0113C52.4519 61.9118 52.0014 60.7722 51.6413 59.6028C50.974 57.3435 50.512 55.0285 50.2609 52.686C49.8376 49.0869 50.3799 45.44 51.8322 42.1199C53.1126 39.2011 55.336 36.8936 57.0323 34.2146C58.7102 31.6034 59.6135 28.57 59.6375 25.4663C59.7007 22.3221 59.3146 19.185 58.4911 16.1499C57.4141 12.4735 55.1671 9.24886 52.0912 6.96532C46.4571 2.54232 40.7082 0.0723404 33.4312 0.442723C29.7897 0.695374 26.1716 1.21447 22.606 1.99583C18.7227 2.7775 14.611 4.22949 11.824 7.1721C9.92286 9.20364 8.45406 11.6001 7.50667 14.2162C7.06261 15.5175 6.70135 16.8457 6.42506 18.1927C5.95953 19.6584 5.3982 21.0919 4.7447 22.4839C4.55258 22.9078 4.46902 23.3728 4.50157 23.8371C4.72198 25.4095 7.07834 26.0821 7.09652 27.7056C7.07252 28.0644 6.96222 28.4121 6.77499 28.7191C5.39269 31.6402 3.69586 34.4018 1.71461 36.955C1.24765 37.523 0.2967 38.6592 0.414859 39.4704C0.498933 40.0464 1.18971 40.5247 1.61576 40.8417C2.52468 41.5166 4.37545 41.9779 4.60609 43.1958C4.72651 43.8159 4.65189 44.4581 4.3925 45.0341C3.76307 46.3588 3.06662 47.0666 3.56084 47.4825C4.05506 47.8983 5.37867 48.897 5.37867 48.897C5.37867 48.897 4.12209 50.5023 4.81741 50.9966C5.68202 51.6101 6.78067 51.893 7.07493 53.0416C7.16106 53.9518 7.07 54.8701 6.8068 55.7456C6.71747 56.6023 6.82952 57.4679 7.13401 58.2736C7.54411 59.8849 9.15374 60.8846 10.7799 60.5379C14.1335 59.7231 17.4404 58.7267 20.6859 57.5532Z" fill="#7ED09E"/>
<path d="M10.8878 19.1149C10.5885 19.0491 10.3284 18.8651 10.1667 18.6047C10.0049 18.3444 9.95525 18.0297 10.0289 17.7322C10.2075 16.9428 10.4313 16.1644 10.6992 15.4008C11.4895 13.2142 12.7138 11.21 14.2985 9.50877C16.1436 7.55914 19.1692 6.15487 23.2922 5.33458C23.6904 5.25543 24.1006 5.39472 24.3683 5.69999C24.6359 6.00526 24.7204 6.43012 24.5898 6.81455C24.4593 7.19897 24.1335 7.48454 23.7353 7.56369C20.0838 8.28969 17.4638 9.469 15.9493 11.0698C14.5764 12.5466 13.516 14.2857 12.8318 16.1825C12.5938 16.8655 12.395 17.5616 12.2364 18.2673C12.0934 18.8704 11.4933 19.2475 10.8878 19.1149Z" fill="#ECF0F1"/>
<path d="M66.3007 4.88133V32.2851C66.3026 32.8713 65.8303 33.3487 65.2441 33.3531H49.179C48.8985 33.3526 48.629 33.4629 48.4292 33.6598C48.3484 33.7423 48.283 33.8384 48.236 33.9439C48.1587 34.0868 48.1195 34.2472 48.1224 34.4097V35.6935C48.1243 36.2797 47.652 36.7571 47.0658 36.7615H40.1013C39.5151 36.7571 39.0427 36.2797 39.0446 35.6935V34.4097C39.0367 33.8295 38.5683 33.361 37.988 33.3531H21.9116C21.3254 33.3487 20.8531 32.8713 20.855 32.2851V4.88133C20.8531 4.29515 21.3254 3.81773 21.9116 3.81335H65.2441C65.8303 3.81773 66.3026 4.29515 66.3007 4.88133Z" fill="#805333"/>
<path d="M66.3007 4.88133V30.0128C66.3026 30.599 65.8303 31.0764 65.2441 31.0808H49.179C48.8981 31.0784 48.6279 31.1889 48.4292 31.3876C48.2305 31.5863 48.12 31.8564 48.1224 32.1374V33.4213C48.1191 33.5648 48.0922 33.7068 48.0429 33.8416C47.8712 34.2294 47.4899 34.4822 47.0658 34.4892H40.1013C39.6772 34.4822 39.2959 34.2294 39.1242 33.8416C39.0749 33.7068 39.048 33.5648 39.0446 33.4213V32.1374C39.0415 31.5552 38.5703 31.0839 37.988 31.0808H21.9116C21.3254 31.0764 20.8531 30.599 20.855 30.0128V4.88133C20.8531 4.29515 21.3254 3.81773 21.9116 3.81335H65.2441C65.8303 3.81773 66.3026 4.29515 66.3007 4.88133Z" fill="#CB8252"/>
<path d="M9.49357 24.265C10.121 24.265 10.6297 23.7563 10.6297 23.1288C10.6297 22.5013 10.121 21.9927 9.49357 21.9927C8.86609 21.9927 8.35742 22.5013 8.35742 23.1288C8.35742 23.7563 8.86609 24.265 9.49357 24.265Z" fill="#ECF0F1"/>
<path d="M43.578 33.3019C42.9506 33.3019 42.4419 32.7932 42.4419 32.1657V27.6723C42.4419 27.0448 42.9506 26.5361 43.578 26.5361C44.2055 26.5361 44.7142 27.0448 44.7142 27.6723V32.1657C44.7142 32.7932 44.2055 33.3019 43.578 33.3019Z" fill="#805333"/>
<path d="M43.5782 27.6723V28.8084H26.4111C25.8197 28.7706 25.3689 28.264 25.4 27.6723V23.1277H39.5336C41.9014 23.274 43.7076 25.3034 43.5782 27.6723Z" fill="#FAC176"/>
<path d="M43.5779 4.6426V27.6722C43.7073 25.3034 41.9011 23.274 39.5332 23.1277H25.3996L25.3996 1.4614C25.3894 0.891322 25.8408 0.419666 26.4107 0.404785H39.5332C40.6316 0.430101 41.675 0.890881 42.4336 1.68569C43.1921 2.4805 43.6038 3.54419 43.5779 4.6426Z" fill="#F9EAB0"/>
<path d="M61.7566 1.46152V23.1278H47.623C45.2551 23.2741 43.4489 25.3035 43.5783 27.6724V4.64272C43.5524 3.54431 43.964 2.48062 44.7226 1.68581C45.4812 0.891003 46.5246 0.430223 47.623 0.404907H60.7454C61.3154 0.419788 61.7668 0.891444 61.7566 1.46152Z" fill="#F5EFCA"/>
<path d="M61.7566 23.1278V27.6724C61.7877 28.2641 61.3368 28.7707 60.7454 28.8085H43.5783V27.6724C43.4489 25.3035 45.2551 23.2741 47.623 23.1278H61.7566Z" fill="#FAC176"/>
<path d="M39.0334 7.22175H29.9442C29.3168 7.22175 28.8081 6.71308 28.8081 6.08561C28.8081 5.45813 29.3168 4.94946 29.9442 4.94946H39.0334C39.6609 4.94946 40.1695 5.45813 40.1695 6.08561C40.1695 6.71308 39.6609 7.22175 39.0334 7.22175Z" fill="#35495E"/>
<path d="M39.0334 12.9023H29.9442C29.3168 12.9023 28.8081 12.3936 28.8081 11.7661C28.8081 11.1387 29.3168 10.63 29.9442 10.63H39.0334C39.6609 10.63 40.1695 11.1387 40.1695 11.7661C40.1695 12.3936 39.6609 12.9023 39.0334 12.9023Z" fill="#35495E"/>
<path d="M39.0334 18.5832H29.9442C29.3168 18.5832 28.8081 18.0745 28.8081 17.4471C28.8081 16.8196 29.3168 16.3109 29.9442 16.3109H39.0334C39.6609 16.3109 40.1695 16.8196 40.1695 17.4471C40.1695 18.0745 39.6609 18.5832 39.0334 18.5832Z" fill="#35495E"/>
<path d="M57.2116 7.22175H48.1225C47.495 7.22175 46.9863 6.71308 46.9863 6.08561C46.9863 5.45813 47.495 4.94946 48.1225 4.94946H57.2116C57.8391 4.94946 58.3478 5.45813 58.3478 6.08561C58.3478 6.71308 57.8391 7.22175 57.2116 7.22175Z" fill="#35495E"/>
<path d="M57.2116 12.9024H48.1225C47.495 12.9024 46.9863 12.3937 46.9863 11.7663C46.9863 11.1388 47.495 10.6301 48.1225 10.6301H57.2116C57.8391 10.6301 58.3478 11.1388 58.3478 11.7663C58.3478 12.3937 57.8391 12.9024 57.2116 12.9024Z" fill="#35495E"/>
<path d="M57.2116 18.5832H48.1225C47.495 18.5832 46.9863 18.0745 46.9863 17.4471C46.9863 16.8196 47.495 16.3109 48.1225 16.3109H57.2116C57.8391 16.3109 58.3478 16.8196 58.3478 17.4471C58.3478 18.0745 57.8391 18.5832 57.2116 18.5832Z" fill="#35495E"/>
</svg>
