<svg width="68" height="68" viewBox="0 0 68 68" fill="none" xmlns="http://www.w3.org/2000/svg">
<path d="M20.7965 58.7762C24.691 60.5373 26.3965 67.5191 26.3965 67.5191L54.8961 67.4408C54.3615 66.3322 53.7546 65.2599 53.0794 64.2309C52.54 63.1308 52.0871 61.9904 51.7248 60.82C51.0579 58.562 50.5961 56.2484 50.3452 53.9074C49.9218 50.3106 50.4639 46.6658 51.9155 43.3478C53.1952 40.4297 55.4172 38.118 57.1125 35.4463C58.7893 32.8367 59.6921 29.8052 59.716 26.7034C59.7794 23.5611 59.3936 20.4259 58.5704 17.3927C57.4943 13.7182 55.2487 10.495 52.1744 8.21268C46.5517 3.79808 40.8064 1.32963 33.5339 1.69978C29.8947 1.95321 26.2789 2.47235 22.7154 3.25307C18.8344 4.03425 14.7253 5.48535 11.94 8.42614C10.04 10.4564 8.57214 12.8514 7.62533 15.4659C7.18155 16.7664 6.82051 18.0938 6.54439 19.4399C6.0791 20.9043 5.51812 22.3365 4.86507 23.7274C4.67316 24.151 4.58965 24.6157 4.62209 25.0797C4.84236 26.6511 7.19727 27.3244 7.21544 28.947C7.19127 29.3052 7.08104 29.6522 6.89411 29.9587C5.51266 32.878 3.81688 35.6379 1.83685 38.1895C1.37018 38.7629 0.419813 39.8927 0.537899 40.7034C0.621922 41.279 1.31227 41.7571 1.73806 42.0738C2.64642 42.7483 4.49605 43.2093 4.72655 44.4265C4.84689 45.0462 4.77232 45.688 4.51308 46.2636C3.88405 47.5887 3.18802 48.2949 3.68194 48.7105C4.17586 49.1261 5.49865 50.1241 5.49865 50.1241C5.49865 50.1241 4.24285 51.7296 4.93774 52.2224C5.80181 52.8356 6.89978 53.1183 7.19386 54.2662C7.27994 55.1759 7.18894 56.0936 6.9259 56.9686C6.83663 57.8247 6.9486 58.6898 7.25291 59.4949C7.66275 61.1053 9.27139 62.1043 10.8965 61.7579C14.2481 60.9439 17.5529 59.9486 20.7965 58.7762Z" fill="#FB7B76"/>
<path fill-rule="evenodd" clip-rule="evenodd" d="M48.2161 41.4038C48.2161 37.4423 52.667 35.7391 54.889 33.2593C57.2446 30.5591 58.5079 27.077 58.4316 23.4945C58.3714 15.9533 52.3485 9.81488 44.8097 9.61145C37.2703 9.81365 31.2459 15.9515 31.1844 23.4934C31.1081 27.0759 32.3714 30.5579 34.727 33.2582C36.9536 35.7391 41.4034 37.4423 41.4034 41.4038H48.2161Z" fill="#F0C419"/>
<path d="M11.0045 20.3607C10.7053 20.2949 10.4454 20.1111 10.2837 19.8509C10.1221 19.5907 10.0725 19.2762 10.1461 18.9789C10.3245 18.19 10.5482 17.4121 10.816 16.6489C11.6057 14.4637 12.8293 12.4607 14.4131 10.7605C16.257 8.81664 19.2807 7.40869 23.4012 6.5889C24.0164 6.46662 24.6142 6.86619 24.7365 7.48136C24.8588 8.09654 24.4592 8.69436 23.8441 8.81664C20.1947 9.54219 17.5764 10.7219 16.0629 12.3206C14.6907 13.7965 13.631 15.5345 12.9472 17.4301C12.7094 18.1127 12.5108 18.8084 12.3522 19.5136C12.2092 20.1164 11.6096 20.4933 11.0045 20.3607Z" fill="#ECF0F1"/>
<path d="M9.61103 25.5076C10.2381 25.5076 10.7465 24.9992 10.7465 24.3721C10.7465 23.745 10.2381 23.2367 9.61103 23.2367C8.98394 23.2367 8.47559 23.745 8.47559 24.3721C8.47559 24.9992 8.98394 25.5076 9.61103 25.5076Z" fill="#ECF0F1"/>
<path d="M41.4038 48.2166H48.2165V49.352C48.2165 51.2333 46.6914 52.7583 44.8101 52.7583C42.9289 52.7583 41.4038 51.2333 41.4038 49.352V48.2166Z" fill="#95A5A5"/>
<path d="M66.3831 24.3723H62.9768C62.3497 24.3723 61.8413 23.864 61.8413 23.2369C61.8413 22.6098 62.3497 22.1014 62.9768 22.1014H66.3831C67.0102 22.1014 67.5185 22.6098 67.5185 23.2369C67.5185 23.864 67.0102 24.3723 66.3831 24.3723Z" fill="#F0C419"/>
<path d="M57.6554 11.5269C57.1957 11.5273 56.7812 11.2505 56.6054 10.8257C56.4296 10.401 56.5272 9.9122 56.8527 9.58758L59.2621 7.17931C59.5471 6.88414 59.9693 6.76576 60.3663 6.86968C60.7633 6.97359 61.0733 7.28361 61.1772 7.6806C61.2811 8.07758 61.1627 8.49974 60.8676 8.78482L58.4593 11.1942C58.2461 11.4075 57.9569 11.5272 57.6554 11.5269Z" fill="#F0C419"/>
<path d="M44.8098 6.20517C44.1827 6.20517 43.6743 5.69681 43.6743 5.06972V1.6634C43.6743 1.03631 44.1827 0.527954 44.8098 0.527954C45.4368 0.527954 45.9452 1.03631 45.9452 1.6634V5.06972C45.9452 5.69681 45.4368 6.20517 44.8098 6.20517Z" fill="#F0C419"/>
<path d="M31.9646 11.5269C31.6631 11.5272 31.3739 11.4075 31.1607 11.1942L28.7524 8.78482C28.4573 8.49974 28.3389 8.07758 28.4428 7.6806C28.5467 7.28361 28.8567 6.97359 29.2537 6.86968C29.6507 6.76576 30.0729 6.88414 30.3579 7.17931L32.7674 9.58758C33.0928 9.9122 33.1904 10.401 33.0146 10.8257C32.8388 11.2505 32.4243 11.5273 31.9646 11.5269Z" fill="#F0C419"/>
<path d="M26.6428 24.3722H23.2365C22.6094 24.3722 22.1011 23.8638 22.1011 23.2368C22.1011 22.6097 22.6094 22.1013 23.2365 22.1013H26.6428C27.2699 22.1013 27.7783 22.6097 27.7783 23.2368C27.7783 23.8638 27.2699 24.3722 26.6428 24.3722Z" fill="#F0C419"/>
<path d="M44.8098 32.3203C50.4536 32.3203 55.0288 27.2368 55.0288 20.9659C55.0288 14.695 50.4536 9.61145 44.8098 9.61145C39.166 9.61145 34.5908 14.695 34.5908 20.9659C34.5908 27.2368 39.166 32.3203 44.8098 32.3203Z" fill="#F3D55B"/>
<path d="M47.0808 42.5394C46.4537 42.5394 45.9454 42.031 45.9454 41.4039V27.7786H43.6745V41.4039C43.6745 42.031 43.1661 42.5394 42.539 42.5394C41.9119 42.5394 41.4036 42.031 41.4036 41.4039V27.7786H40.2681C38.3869 27.7786 36.8618 26.2535 36.8618 24.3723C36.8618 22.491 38.3869 20.9659 40.2681 20.9659C42.1494 20.9659 43.6745 22.491 43.6745 24.3723V25.5077H45.9454V24.3723C45.9454 22.491 47.4704 20.9659 49.3517 20.9659C51.2329 20.9659 52.758 22.491 52.758 24.3723C52.758 26.2535 51.2329 27.7786 49.3517 27.7786H48.2162V41.4039C48.2162 42.031 47.7079 42.5394 47.0808 42.5394ZM48.2162 25.5077H49.3517C49.9788 25.5077 50.4871 24.9994 50.4871 24.3723C50.4871 23.7452 49.9788 23.2368 49.3517 23.2368C48.7246 23.2368 48.2162 23.7452 48.2162 24.3723V25.5077ZM40.2681 23.2368C39.6411 23.2368 39.1327 23.7452 39.1327 24.3723C39.1327 24.9994 39.6411 25.5077 40.2681 25.5077H41.4036V24.3723C41.4036 23.7452 40.8952 23.2368 40.2681 23.2368Z" fill="#F29C1F"/>
<path d="M48.2173 41.4038H41.4047C40.1505 41.4038 39.1338 42.4205 39.1338 43.6747V45.9456C39.1338 47.1998 40.1505 48.2165 41.4047 48.2165H48.2173C49.4715 48.2165 50.4882 47.1998 50.4882 45.9456V43.6747C50.4882 42.4205 49.4715 41.4038 48.2173 41.4038Z" fill="#BDC3C7"/>
</svg>
