<svg width="62" height="63" viewBox="0 0 62 63" fill="none" xmlns="http://www.w3.org/2000/svg">
<path d="M18.8326 54.1214C22.4513 55.7577 24.0359 62.2449 24.0359 62.2449L50.5163 62.1721C50.0196 61.142 49.4557 60.1457 48.8283 59.1896C48.3271 58.1675 47.9063 57.1079 47.5697 56.0204C46.95 53.9224 46.521 51.7727 46.2879 49.5976C45.8945 46.2556 46.3981 42.8691 47.7469 39.7861C48.9359 37.0748 51.0006 34.9268 52.5757 32.4444C54.1337 30.0197 54.9725 27.203 54.9948 24.3209C55.0536 21.4013 54.6952 18.4882 53.9303 15.6699C52.9305 12.2557 50.8439 9.26093 47.9875 7.14027C42.7631 3.03844 37.4248 0.744872 30.6676 1.0888C27.2862 1.32427 23.9266 1.80664 20.6156 2.53204C17.0096 3.25788 13.1915 4.60616 10.6036 7.33861C8.83827 9.22505 7.47438 11.4503 6.59465 13.8796C6.18231 15.088 5.84685 16.3213 5.59029 17.5721C5.15797 18.9327 4.63673 20.2635 4.02995 21.5558C3.85163 21.9494 3.77405 22.3812 3.80418 22.8123C4.00885 24.2724 6.19692 24.898 6.2138 26.4056C6.19134 26.7384 6.08892 27.0608 5.91523 27.3456C4.63166 30.0581 3.05602 32.6225 1.21627 34.9933C0.782667 35.526 -0.100366 36.5758 0.00935405 37.329C0.0874239 37.8639 0.728862 38.3081 1.12449 38.6024C1.96848 39.2291 3.68708 39.6574 3.90124 40.7884C4.01306 41.3642 3.94377 41.9605 3.7029 42.4953C3.11843 43.7265 2.47172 44.3827 2.93064 44.7689C3.38957 45.155 4.61864 46.0823 4.61864 46.0823C4.61864 46.0823 3.45181 47.5741 4.09747 48.032C4.90032 48.6017 5.92051 48.8644 6.19375 49.931C6.27372 50.7762 6.18917 51.6288 5.94477 52.4419C5.86182 53.2373 5.96587 54.0411 6.24861 54.7892C6.62942 56.2855 8.12408 57.2138 9.6341 56.8918C12.7482 56.1356 15.8189 55.2107 18.8326 54.1214Z" fill="#4482C3"/>
<path d="M61.1895 20.0449C61.1895 20.0449 52.2147 31.6499 41.1446 31.6499C30.0745 31.6499 21.0996 20.0449 21.0996 20.0449C21.0996 20.0449 30.0745 8.43994 41.1446 8.43994C52.2147 8.43994 61.1895 20.0449 61.1895 20.0449Z" fill="#F09372"/>
<path d="M52.7499 20.0449C52.7521 21.9313 52.2921 23.7895 51.4101 25.457C48.1341 26.724 44.6572 27.3922 41.1449 27.4299C37.6327 27.3922 34.1558 26.724 30.8798 25.457C29.0941 22.0699 29.0941 18.0199 30.8798 14.6328C34.1558 13.3658 37.6327 12.6975 41.1449 12.6599C44.6572 12.6975 48.1341 13.3658 51.4101 14.6328C52.2921 16.3003 52.7521 18.1585 52.7499 20.0449Z" fill="#67B9CC"/>
<path d="M30.8794 14.6328C29.0937 18.02 29.0937 22.0699 30.8794 25.4571C27.3677 24.151 24.0713 22.3268 21.0996 20.045C24.0713 17.7631 27.3677 15.9389 30.8794 14.6328Z" fill="#ECF0F1"/>
<path d="M51.4102 25.457C53.1959 22.0698 53.1959 18.0198 51.4102 14.6327C54.9218 15.9387 58.2183 17.763 61.19 20.0448C58.2183 22.3267 54.9218 24.1509 51.4102 25.457Z" fill="#ECF0F1"/>
<path d="M41.1447 27.4299C45.2234 27.4299 48.5297 24.1235 48.5297 20.0449C48.5297 15.9663 45.2234 12.6599 41.1447 12.6599C37.0661 12.6599 33.7598 15.9663 33.7598 20.0449C33.7598 24.1235 37.0661 27.4299 41.1447 27.4299Z" fill="#2FA8CC"/>
<path d="M9.73426 18.4276C9.45628 18.3665 9.21478 18.1957 9.0646 17.9539C8.91441 17.7121 8.86828 17.4199 8.93668 17.1437C9.10249 16.4107 9.31031 15.6879 9.55913 14.9788C10.2929 12.9484 11.4298 11.0873 12.9014 9.5076C14.6147 7.70144 17.4241 6.39324 21.2527 5.63153C21.8243 5.51792 22.3798 5.88917 22.4934 6.46076C22.607 7.03235 22.2358 7.58782 21.6642 7.70144C18.2734 8.37558 15.8406 9.47173 14.4343 10.9572C13.1594 12.3285 12.1747 13.9433 11.5394 15.7047C11.3184 16.3389 11.1338 16.9853 10.9865 17.6406C10.8537 18.2006 10.2965 18.5508 9.73426 18.4276Z" fill="#B0D3F0"/>
<path d="M8.43976 23.21C9.02242 23.21 9.49476 22.7376 9.49476 22.155C9.49476 21.5723 9.02242 21.1 8.43976 21.1C7.8571 21.1 7.38477 21.5723 7.38477 22.155C7.38477 22.7376 7.8571 23.21 8.43976 23.21Z" fill="#B0D3F0"/>
<path d="M41.145 23.2099C42.893 23.2099 44.31 21.7929 44.31 20.0449C44.31 18.2969 42.893 16.8799 41.145 16.8799C39.397 16.8799 37.98 18.2969 37.98 20.0449C37.98 21.7929 39.397 23.2099 41.145 23.2099Z" fill="#2C3E50"/>
<path d="M41.1448 40.0899C40.5622 40.0899 40.0898 39.6176 40.0898 39.0349V35.8699C40.0898 35.2873 40.5622 34.8149 41.1448 34.8149C41.7275 34.8149 42.1998 35.2873 42.1998 35.8699V39.0349C42.1998 39.6176 41.7275 40.0899 41.1448 40.0899Z" fill="#F0C419"/>
<path d="M50.6396 37.5452C50.2623 37.5456 49.9136 37.3444 49.7249 37.0177L48.1424 34.2747C47.951 33.9481 47.9492 33.544 48.1377 33.2157C48.3263 32.8874 48.6763 32.6853 49.0549 32.6862C49.4335 32.687 49.7826 32.8906 49.9697 33.2197L51.5522 35.9627C51.7405 36.289 51.7406 36.6909 51.5525 37.0172C51.3643 37.3436 51.0163 37.5448 50.6396 37.5452Z" fill="#F0C419"/>
<path d="M49.0573 7.39555C48.6806 7.39516 48.3327 7.19393 48.1445 6.86758C47.9563 6.54123 47.9564 6.1393 48.1448 5.81305L49.7273 3.07006C49.9144 2.74095 50.2635 2.53733 50.6421 2.5365C51.0206 2.53567 51.3707 2.73775 51.5592 3.06603C51.7478 3.39431 51.746 3.79846 51.5545 4.12506L49.972 6.86805C49.7834 7.19479 49.4346 7.39592 49.0573 7.39555Z" fill="#F0C419"/>
<path d="M41.1448 5.27499C40.5622 5.27499 40.0898 4.80265 40.0898 4.21999V1.055C40.0898 0.472339 40.5622 0 41.1448 0C41.7275 0 42.1998 0.472339 42.1998 1.055V4.21999C42.1998 4.80265 41.7275 5.27499 41.1448 5.27499Z" fill="#F0C419"/>
<path d="M33.2324 7.39555C32.8551 7.39592 32.5063 7.19479 32.3177 6.86805L30.7352 4.12506C30.5437 3.79846 30.5419 3.39431 30.7305 3.06603C30.9191 2.73775 31.2691 2.53567 31.6476 2.5365C32.0262 2.53733 32.3753 2.74095 32.5625 3.07006L34.145 5.81305C34.3333 6.1393 34.3334 6.54123 34.1452 6.86758C33.957 7.19393 33.6091 7.39516 33.2324 7.39555Z" fill="#F0C419"/>
<path d="M31.6496 37.5452C31.2729 37.5448 30.925 37.3436 30.7368 37.0172C30.5486 36.6909 30.5487 36.289 30.737 35.9627L32.3195 33.2197C32.5067 32.8906 32.8558 32.687 33.2344 32.6862C33.6129 32.6853 33.9629 32.8874 34.1515 33.2157C34.3401 33.544 34.3383 33.9481 34.1468 34.2747L32.5643 37.0177C32.3757 37.3444 32.0269 37.5456 31.6496 37.5452Z" fill="#F0C419"/>
<path d="M36.9248 20.045C38.6727 20.045 40.0898 18.6279 40.0898 16.88C40.0898 15.132 38.6727 13.715 36.9248 13.715C35.1768 13.715 33.7598 15.132 33.7598 16.88C33.7598 18.6279 35.1768 20.045 36.9248 20.045Z" fill="#ECF0F1"/>
<path d="M45.3646 25.32C45.9472 25.32 46.4196 24.8476 46.4196 24.265C46.4196 23.6823 45.9472 23.21 45.3646 23.21C44.7819 23.21 44.3096 23.6823 44.3096 24.265C44.3096 24.8476 44.7819 25.32 45.3646 25.32Z" fill="#ECF0F1"/>
</svg>
