<svg width="66" height="66" viewBox="0 0 66 66" fill="none" xmlns="http://www.w3.org/2000/svg">
<path d="M20.3083 57.2246C24.2105 58.9892 25.9193 65.9847 25.9193 65.9847L54.4746 65.9062C53.939 64.7954 53.3309 63.721 52.6544 62.69C52.1139 61.5878 51.6601 60.4451 51.2971 59.2724C50.6289 57.01 50.1663 54.6919 49.9149 52.3463C49.4907 48.7424 50.0337 45.0906 51.4883 41.7661C52.7704 38.8423 54.9968 36.526 56.6954 33.849C58.3755 31.2343 59.28 28.1969 59.304 25.089C59.3675 21.9406 58.9809 18.7993 58.1561 15.7602C57.078 12.0784 54.8279 8.84899 51.7477 6.56217C46.1139 2.13893 40.3574 -0.334355 33.0706 0.0365237C29.4243 0.290446 25.8014 0.810607 22.2309 1.59285C18.3424 2.37556 14.2252 3.8295 11.4345 6.77605C9.53081 8.8103 8.06005 11.21 7.11139 13.8296C6.66673 15.1327 6.30499 16.4626 6.02833 17.8114C5.56213 19.2786 5.00006 20.7137 4.34573 22.1072C4.15344 22.5317 4.06977 22.9973 4.10227 23.4622C4.32297 25.0367 6.68249 25.7113 6.70069 27.3371C6.67648 27.6959 6.56604 28.0437 6.37873 28.3507C4.99459 31.2758 3.29548 34.0411 1.31158 36.5976C0.843995 37.1722 -0.10823 38.3041 0.010087 39.1164C0.0942742 39.6932 0.785974 40.1722 1.2126 40.4896C2.12273 41.1654 3.97599 41.6273 4.20693 42.8468C4.32751 43.4678 4.25279 44.1108 3.99305 44.6876C3.36278 46.0152 2.6654 46.7229 3.16028 47.1392C3.65516 47.5556 4.98054 48.5556 4.98054 48.5556C4.98054 48.5556 3.72229 50.1643 4.41854 50.658C5.2843 51.2724 6.38442 51.5557 6.67908 52.7058C6.76532 53.6173 6.67414 54.5367 6.41059 55.4135C6.32114 56.2712 6.43334 57.1381 6.73823 57.9448C7.14888 59.5583 8.76066 60.5593 10.389 60.2121C13.7471 59.3966 17.0584 58.3993 20.3083 57.2246Z" fill="#B0D3F0"/>
<path d="M10.4969 18.734C10.1972 18.6681 9.93675 18.4839 9.7748 18.2232C9.61285 17.9625 9.5631 17.6474 9.63686 17.3495C9.81565 16.5591 10.0398 15.7796 10.3081 15.015C11.0994 12.8254 12.3253 10.8186 13.9122 9.11504C15.7598 7.16736 18.7894 5.75665 22.918 4.93526C23.5343 4.81274 24.1333 5.21309 24.2558 5.82947C24.3784 6.44584 23.978 7.04484 23.3616 7.16736C19.7052 7.89433 17.0817 9.07636 15.5652 10.6782C14.1904 12.157 13.1286 13.8983 12.4435 15.7977C12.2052 16.4816 12.0062 17.1786 11.8473 17.8853C11.7041 18.4892 11.1032 18.8668 10.4969 18.734Z" fill="#ECF0F1"/>
<path d="M9.10104 23.8911C9.72936 23.8911 10.2387 23.3817 10.2387 22.7534C10.2387 22.1251 9.72936 21.6157 9.10104 21.6157C8.47273 21.6157 7.96338 22.1251 7.96338 22.7534C7.96338 23.3817 8.47273 23.8911 9.10104 23.8911Z" fill="#ECF0F1"/>
<path d="M61.9572 14.4939C60.7568 13.6416 59.2188 13.4213 57.8275 13.9023C57.5785 13.989 57.3385 14.0994 57.1107 14.2322C54.977 8.44464 49.4753 4.58912 43.307 4.55872C37.1387 4.52832 31.5993 8.32943 29.4086 14.0957C29.2493 14.0274 29.0901 13.9592 28.9308 13.9023C28.4549 13.7383 27.9552 13.6537 27.4518 13.652C26.3392 13.6482 25.2648 14.0577 24.437 14.8011C26.522 6.17819 34.2062 0.0795063 43.0772 0.00688077C51.9483 -0.0657447 59.7313 5.90631 61.9572 14.4939Z" fill="#E64C3C"/>
<path d="M40.9557 26.1664C40.9572 27.3737 40.4782 28.5321 39.6245 29.3858C38.7707 30.2396 37.6124 30.7185 36.405 30.717H25.0284C22.5151 30.717 20.4777 28.6796 20.4777 26.1664C20.4742 25.7821 20.524 25.3993 20.6256 25.0287C21.1412 27.0385 22.9534 28.4434 25.0284 28.4417H36.405C37.6117 28.4395 38.7687 27.9612 39.6246 27.1106C40.1944 26.5321 40.6024 25.8142 40.8078 25.0287C40.9094 25.3993 40.9591 25.7821 40.9557 26.1664Z" fill="#E6E7E8"/>
<path d="M57.1108 14.2323C56.0159 14.8262 55.2166 15.848 54.9037 17.0537V17.0651C54.8022 17.4356 54.7524 17.8185 54.7559 18.2027C54.7511 18.4823 54.7817 18.7613 54.8469 19.0332C54.8098 19.1296 54.7794 19.2284 54.7559 19.329C54.7608 18.3596 54.3409 17.4366 53.6068 16.8034V16.792C53.4279 16.6328 53.2335 16.4918 53.0266 16.3711C51.7101 12.0121 47.6705 9.04847 43.1174 9.1012C38.5642 9.15392 34.5943 12.2103 33.3791 16.5986C33.3726 16.6045 33.3686 16.6126 33.3678 16.6214C33.2881 16.6783 33.2199 16.7351 33.1516 16.792V16.8034C32.4171 17.4412 31.9975 18.3677 32.0026 19.3404H31.8547C31.9563 18.9698 32.006 18.587 32.0026 18.2027C32.0041 17.8193 31.9583 17.4372 31.866 17.0651H31.8547V17.0537C31.514 15.756 30.6193 14.6741 29.4087 14.0958C31.5994 8.32949 37.1388 4.52838 43.3071 4.55877C49.4754 4.58917 54.9771 8.44469 57.1108 14.2323Z" fill="#F0C419"/>
<path d="M53.0264 16.371C51.7464 15.6439 50.1438 15.823 49.0559 16.8147C48.8721 16.9812 48.7079 17.1683 48.5667 17.3722C47.7598 15.1858 45.7009 13.7129 43.3711 13.6552C41.0413 13.5975 38.912 14.9668 37.9978 17.1105C37.905 17.0063 37.8062 16.9076 37.702 16.8147C37.0801 16.2394 36.2626 15.9221 35.4153 15.9274C34.6826 15.9302 33.9697 16.1652 33.3789 16.5986C34.5941 12.2103 38.564 9.15388 43.1171 9.10116C47.6702 9.04843 51.7099 12.0121 53.0264 16.371Z" fill="#2FA8CC"/>
<path d="M65.9845 26.1664C65.9845 28.6796 63.9471 30.717 61.4338 30.717H50.0572C48.8498 30.7185 47.6914 30.2396 46.8377 29.3858C45.984 28.5321 45.505 27.3737 45.5065 26.1664C45.503 25.7821 45.5528 25.3993 45.6544 25.0287C45.8598 25.8142 46.2678 26.5321 46.8376 27.1106C47.6935 27.9612 48.8505 28.4395 50.0572 28.4417H61.4338C63.5088 28.4434 65.321 27.0385 65.8366 25.0287C65.9382 25.3993 65.988 25.7821 65.9845 26.1664Z" fill="#E6E7E8"/>
<path d="M40.8081 25.0287C40.6027 25.8143 40.1948 26.5321 39.625 27.1106C38.7691 27.9612 37.612 28.4395 36.4054 28.4417H25.0287C22.9538 28.4434 21.1416 27.0386 20.626 25.0287C20.9478 23.7312 21.8383 22.6484 23.0492 22.0822C22.8508 21.5707 22.7505 21.0266 22.7534 20.478C22.7531 20.303 22.7645 20.1282 22.7875 19.9547C22.8079 19.7508 22.8459 19.5491 22.9013 19.3518C23.0966 18.6086 23.4717 17.9249 23.9935 17.3608C24.8493 16.443 26.0491 15.9235 27.3041 15.9274C29.3729 15.9328 31.1795 17.3286 31.7068 19.329V19.3404H31.7182C31.8104 19.7125 31.8563 20.0946 31.8547 20.478C31.8582 20.8623 31.8084 21.2451 31.7068 21.6157H31.8547C31.8496 20.643 32.2693 19.7165 33.0038 19.0787V19.0673C33.6261 18.51 34.4323 18.2021 35.2677 18.2027C37.1493 18.2108 38.6726 19.7341 38.6807 21.6157C38.6844 21.8107 38.6653 22.0054 38.6238 22.1959C39.7111 22.7989 40.5014 23.8238 40.8081 25.0287Z" fill="#ECF0F1"/>
<path d="M37.9978 17.1106V17.122C37.733 17.7461 37.5827 18.4128 37.5541 19.0901C36.9321 18.5148 36.1146 18.1975 35.2674 18.2028C34.432 18.2022 33.6258 18.5101 33.0034 19.0674C33.0256 18.2404 33.1478 17.419 33.3675 16.6214C33.3683 16.6127 33.3724 16.6046 33.3788 16.5987C33.9696 16.1653 34.6826 15.9303 35.4153 15.9274C36.2625 15.9222 37.08 16.2394 37.702 16.8148C37.8062 16.9076 37.9049 17.0064 37.9978 17.1106Z" fill="#4482C3"/>
<path d="M33.3675 16.6213C33.1478 17.419 33.0256 18.2403 33.0035 19.0673V19.0787C32.269 19.7164 31.8493 20.6429 31.8544 21.6157H31.7065C31.8081 21.2451 31.8579 20.8622 31.8544 20.478C31.853 18.536 30.6193 16.8088 28.7827 16.1776C28.9378 15.4687 29.1469 14.7727 29.4084 14.0957C30.619 14.674 31.5137 15.756 31.8544 17.0536V17.065H31.8658C31.958 17.4372 32.0039 17.8193 32.0023 18.2027C32.0058 18.5869 31.956 18.9698 31.8544 19.3403H32.0023C31.9972 18.3676 32.4169 17.4411 33.1513 16.8033V16.792C33.2196 16.7351 33.2879 16.6782 33.3675 16.6213Z" fill="#F29C1F"/>
<path d="M29.4084 14.0957C29.147 14.7727 28.9378 15.4687 28.7827 16.1776C28.3068 16.0136 27.8072 15.929 27.3038 15.9273C26.0488 15.9234 24.849 16.4429 23.9932 17.3608C24.0818 16.4983 24.2301 15.643 24.4369 14.801C25.2647 14.0577 26.3391 13.6482 27.4517 13.652C27.955 13.6537 28.4547 13.7383 28.9306 13.9023C29.0899 13.9592 29.2492 14.0274 29.4084 14.0957Z" fill="#C03A2B"/>
<path d="M53.4589 19.0673C52.8365 18.51 52.0303 18.2021 51.1949 18.2027C50.3476 18.1974 49.5301 18.5147 48.9082 19.0901C48.8838 18.5033 48.7687 17.9238 48.5669 17.3722C48.7081 17.1683 48.8722 16.9812 49.0561 16.8147C50.144 15.823 51.7465 15.6439 53.0265 16.3711C53.2927 17.246 53.4381 18.1531 53.4589 19.0673Z" fill="#4482C3"/>
<path d="M54.7556 19.3404C54.5584 20.086 54.5584 20.8701 54.7556 21.6157H54.6077C54.6128 20.643 54.1932 19.7165 53.4587 19.0787V19.0674C53.4379 18.1531 53.2925 17.246 53.0264 16.3711C53.2333 16.4918 53.4276 16.6328 53.6066 16.792V16.8034C54.4003 17.4177 54.8964 18.3396 54.9718 19.3404H54.7556Z" fill="#F29C1F"/>
<path d="M57.6796 16.1777C56.3416 16.6355 55.2939 17.6916 54.8469 19.0332C54.7817 18.7613 54.7511 18.4823 54.7558 18.2027C54.7524 17.8185 54.8021 17.4357 54.9037 17.0651V17.0537C55.2166 15.848 56.0159 14.8262 57.1108 14.2323C57.343 14.8675 57.5331 15.5174 57.6796 16.1777Z" fill="#F29C1F"/>
<path d="M62.4692 17.3609C61.6134 16.4431 60.4136 15.9236 59.1586 15.9275C58.6553 15.9291 58.1556 16.0137 57.6797 16.1777C57.5331 15.5175 57.3431 14.8676 57.1108 14.2323C57.3386 14.0995 57.5786 13.9891 57.8276 13.9024C59.2189 13.4214 60.7569 13.6417 61.9573 14.494C62.1978 15.4358 62.3689 16.394 62.4692 17.3609Z" fill="#C03A2B"/>
<path d="M65.8365 25.0288C65.3209 27.0386 63.5086 28.4434 61.4337 28.4418H50.0571C48.8504 28.4396 47.6934 27.9613 46.8375 27.1107C46.2677 26.5322 45.8597 25.8143 45.6543 25.0288C45.961 23.8239 46.7513 22.799 47.8386 22.196C47.7972 22.0054 47.7781 21.8107 47.7817 21.6158C47.784 20.2736 48.5726 19.0574 49.797 18.5078C51.0214 17.9581 52.4543 18.1771 53.4587 19.0674V19.0788C54.1932 19.7165 54.6128 20.643 54.6077 21.6158H54.7556C54.5584 20.8701 54.5584 20.0861 54.7556 19.3404V19.3291C55.1749 17.7288 56.4296 16.4821 58.0326 16.073C59.6355 15.664 61.3342 16.1571 62.469 17.3609C62.9908 17.925 63.3658 18.6087 63.5611 19.3518C63.6165 19.5491 63.6546 19.7509 63.6749 19.9548C63.698 20.1283 63.7094 20.3031 63.709 20.4781C63.712 21.0266 63.6116 21.5708 63.4132 22.0822C64.6242 22.6485 65.5147 23.7313 65.8365 25.0288Z" fill="#ECF0F1"/>
</svg>
