<svg width="67" height="67" viewBox="0 0 67 67" fill="none" xmlns="http://www.w3.org/2000/svg">
<path d="M20.8022 57.8223C24.7155 59.5919 26.4291 66.6073 26.4291 66.6073L55.0658 66.5286C54.5286 65.4146 53.9188 64.3372 53.2403 63.3032C52.7013 62.1991 52.2489 61.0548 51.8872 59.8805C51.2171 57.6117 50.7531 55.287 50.501 52.9347C50.0759 49.3206 50.6205 45.6584 52.0789 42.3243C53.3647 39.3933 55.5974 37.0762 57.3008 34.3859C58.9857 31.7638 59.8928 28.7177 59.9169 25.6009C59.9804 22.4436 59.5927 19.2933 58.7657 16.2455C57.6842 12.5537 55.4278 9.31557 52.339 7.02247C46.6813 2.58093 40.9083 0.100604 33.6008 0.472539C29.9441 0.726248 26.3108 1.24752 22.7303 2.03215C18.8307 2.8171 14.7017 4.27517 11.9031 7.23011C9.99399 9.27016 8.51904 11.6767 7.56767 14.3037C7.12175 15.6105 6.75898 16.9442 6.48153 18.2969C6.01405 19.7687 5.45037 21.2082 4.79414 22.6061C4.60121 23.0317 4.5173 23.4987 4.54998 23.9649C4.77132 25.5439 7.13755 26.2193 7.15581 27.8497C7.13171 28.2099 7.02094 28.5591 6.83293 28.8674C5.44484 31.8007 3.7409 34.5739 1.75134 37.1378C1.28243 37.7082 0.327497 38.8491 0.446151 39.6637C0.530578 40.2422 1.22425 40.7225 1.65209 41.0408C2.56481 41.7185 4.42334 42.1817 4.65495 43.4047C4.77587 44.0275 4.70094 44.6723 4.44046 45.2507C3.80839 46.581 3.10902 47.2918 3.60531 47.7094C4.10161 48.1269 5.43076 49.1298 5.43076 49.1298C5.43076 49.1298 4.16892 50.7419 4.86715 51.2382C5.73538 51.8543 6.83863 52.1384 7.13413 53.2918C7.22062 54.2058 7.12918 55.1279 6.86488 56.0072C6.77517 56.8674 6.88769 57.7367 7.19346 58.5457C7.60527 60.1638 9.22164 61.1676 10.8546 60.8195C14.2223 60.0013 17.543 59.0007 20.8022 57.8223Z" fill="#B0D3F0"/>
<path d="M49.7456 17.3545L45.3418 36.3163L44.931 38.0847L44.6002 37.1377L43.7559 34.6506L37.8574 17.4343C38.04 16.841 38.2453 16.2706 38.4735 15.7116C39.7353 12.6152 41.5267 9.76212 43.7673 7.28027C46.023 9.73605 47.8336 12.5659 49.1181 15.6431C49.3463 16.1907 49.5631 16.7612 49.7456 17.3545Z" fill="#DF4D60"/>
<path d="M43.7559 30.7715V34.6505L37.8574 17.4343C38.04 16.841 38.2453 16.2706 38.4735 15.7115C39.4394 16.6108 40.2902 17.6264 41.0063 18.7349C42.7113 21.5613 43.6583 24.7796 43.7559 28.0789C43.8016 28.9759 43.8016 29.8745 43.7559 30.7715Z" fill="#A73A48"/>
<path d="M49.7457 17.3545L45.3418 36.3164L44.6002 37.1378L43.756 38.0848V30.7716C43.7103 29.8746 43.7103 28.976 43.756 28.079C43.8491 24.7806 44.7923 21.5621 46.4941 18.735C47.2318 17.5955 48.1138 16.5563 49.1182 15.6432C49.3464 16.1908 49.5632 16.7613 49.7457 17.3545Z" fill="#A73A48"/>
<path d="M10.9629 19.2233C10.6622 19.1573 10.4011 18.9725 10.2387 18.7111C10.0763 18.4496 10.0264 18.1336 10.1003 17.8349C10.2796 17.0422 10.5044 16.2606 10.7735 15.4937C11.567 13.298 12.7965 11.2854 14.3879 9.57701C16.2407 7.61922 19.2789 6.20906 23.4192 5.38533C23.8191 5.30584 24.231 5.44572 24.4998 5.75227C24.7685 6.05882 24.8533 6.48547 24.7222 6.8715C24.5911 7.25753 24.2641 7.5443 23.8642 7.62378C20.1973 8.35282 17.5664 9.53708 16.0456 11.1446C14.6669 12.6276 13.602 14.3739 12.9149 16.2787C12.676 16.9646 12.4764 17.6636 12.3171 18.3722C12.1734 18.9779 11.5709 19.3566 10.9629 19.2233Z" fill="#ECF0F1"/>
<path d="M9.56327 24.395C10.1934 24.395 10.7042 23.8842 10.7042 23.2541C10.7042 22.624 10.1934 22.1132 9.56327 22.1132C8.93316 22.1132 8.42236 22.624 8.42236 23.2541C8.42236 23.8842 8.93316 24.395 9.56327 24.395Z" fill="#ECF0F1"/>
<path d="M43.7562 33.0534V40.3666L41.5429 37.8908L27.0192 21.6443C26.8937 20.8799 26.8138 20.1269 26.7682 19.4082C26.6085 17.0016 26.7696 14.5845 27.2473 12.2205C31.1325 13.1348 34.7601 14.9174 37.8577 17.4344C39.0756 18.4694 40.1364 19.6762 41.0066 21.0168C42.7116 23.8432 43.6586 27.0615 43.7562 30.3608C43.8019 31.2578 43.8019 32.1564 43.7562 33.0534Z" fill="#FF5364"/>
<path d="M60.744 19.4082C60.6984 20.1269 60.6185 20.8799 60.493 21.6443H60.4816L45.9921 37.868L43.756 40.3666V33.0534C43.7103 32.1564 43.7103 31.2578 43.756 30.3608C43.8491 27.0624 44.7923 23.8439 46.4941 21.0168C47.3898 19.6412 48.4858 18.4068 49.7457 17.3545C52.8248 14.8793 56.4191 13.1251 60.2648 12.2205C60.7425 14.5845 60.9037 17.0016 60.744 19.4082Z" fill="#FF5364"/>
<path d="M43.8246 38.0733C43.8014 38.0746 43.7785 38.0784 43.7561 38.0847C43.7447 38.0847 43.7675 40.3665 43.7561 40.3665C43.4823 40.3551 42.6609 38.039 41.5428 37.8907L27.0191 21.6443C26.8936 20.8798 26.8137 20.1269 26.7681 19.4081C30.3834 19.7812 33.8239 21.1518 36.7053 23.367C42.1132 27.8051 43.4709 35.3807 43.7561 37.5028C43.8132 37.8679 43.8246 38.0733 43.8246 38.0733Z" fill="#DF4D60"/>
<path d="M60.744 19.4081C60.6984 20.1269 60.6185 20.8798 60.493 21.6443H60.4816L45.9921 37.8679C44.9197 38.0162 44.064 40.3551 43.756 40.3665L43.7445 38.0733H43.6875C43.6875 38.0733 43.6989 37.8679 43.756 37.5028C43.8676 36.651 44.0237 35.8055 44.2237 34.97L44.2351 34.913C44.9767 31.8097 46.6539 27.075 50.3162 23.8006V23.7892C50.4759 23.6408 50.6356 23.5039 50.8067 23.367C53.6184 21.2096 56.9615 19.8534 60.4816 19.4423L60.744 19.4081Z" fill="#DF4D60"/>
<path d="M43.8247 40.2753C43.794 40.2764 43.7635 40.2802 43.7335 40.2867C42.7181 40.378 33.9673 41.0397 28.0232 36.1566C21.6912 30.9541 20.8926 21.4504 20.8926 21.4504C21.7611 21.3717 22.6335 21.3451 23.5052 21.3705C26.7796 21.4162 32.4499 22.0779 36.7055 25.5691C43.0375 30.7716 43.8247 40.2753 43.8247 40.2753Z" fill="#FF5364"/>
<path d="M43.8244 40.2753C43.7937 40.2763 43.7631 40.2802 43.7331 40.2867C42.6835 40.2524 33.9556 39.8189 28.6504 34.2513C24.8511 30.2467 23.7901 24.6106 23.5049 21.3705C26.7793 21.4161 32.4496 22.0778 36.7051 25.569C43.0372 30.7715 43.8244 40.2753 43.8244 40.2753Z" fill="#FB7B76"/>
<path d="M66.6083 21.4503C66.6083 21.4503 65.821 30.9541 59.489 36.1566C53.5107 41.0511 44.7371 40.3779 43.7788 40.2753H43.6875C43.6875 40.2753 43.6989 40.0699 43.756 39.7048C43.8676 38.853 44.0237 38.0075 44.2237 37.172L44.2351 37.115C44.9767 34.0117 46.6539 29.2769 50.3162 26.0026V25.9911C50.4759 25.8428 50.6356 25.7059 50.8067 25.569C53.6184 23.4116 56.9615 22.0554 60.4816 21.6443C61.6194 21.4804 62.7664 21.3889 63.9157 21.3705C64.814 21.3375 65.7135 21.3642 66.6083 21.4503Z" fill="#FF5364"/>
<path d="M63.9157 21.3705C63.6305 24.6335 62.5695 30.2011 58.8273 34.1828C53.5563 39.7733 44.8284 40.241 43.7788 40.2753H43.6875C43.6875 40.2753 43.6989 40.0699 43.756 39.7048C43.8676 38.853 44.0237 38.0075 44.2237 37.172L44.2351 37.115C44.9767 34.0117 46.6539 29.2769 50.3162 26.0026V25.9911C50.4759 25.8428 50.6356 25.7059 50.8067 25.569C53.6184 23.4116 56.9615 22.0554 60.4816 21.6443C61.6194 21.4804 62.7664 21.3889 63.9157 21.3705Z" fill="#FB7B76"/>
</svg>
