<svg width="68" height="68" viewBox="0 0 68 68" fill="none" xmlns="http://www.w3.org/2000/svg">
<path d="M21.0631 58.4318C25.0131 60.218 26.7428 67.2992 26.7428 67.2992L55.6482 67.2198C55.106 66.0954 54.4905 65.0078 53.8056 63.9642C53.2615 62.8497 52.8048 61.6946 52.4398 60.5093C51.7634 58.2192 51.2951 55.8727 51.0406 53.4984C50.6115 49.8503 51.1612 46.1537 52.6333 42.7884C53.9311 39.8299 56.1848 37.491 57.9042 34.7755C59.6049 32.1287 60.5205 29.0541 60.5448 25.9081C60.6089 22.7211 60.2176 19.5413 59.3829 16.4649C58.2912 12.7385 56.0136 9.46993 52.8958 7.15531C47.185 2.6721 41.3579 0.168503 33.9818 0.543928C30.2908 0.800017 26.6234 1.32618 23.0093 2.11818C19.0731 2.91048 14.9054 4.38224 12.0805 7.36491C10.1535 9.4241 8.6647 11.8532 7.70441 14.5049C7.25431 15.824 6.88813 17.1702 6.60808 18.5355C6.13622 20.0211 5.56725 21.4741 4.90485 22.8851C4.71011 23.3148 4.62542 23.7861 4.65841 24.2567C4.88182 25.8505 7.27026 26.5323 7.28868 28.1779C7.26436 28.5416 7.15255 28.894 6.96278 29.2052C5.56166 32.1661 3.84174 34.9653 1.83351 37.5532C1.3602 38.129 0.396303 39.2806 0.51607 40.1028C0.601289 40.6867 1.30147 41.1715 1.73332 41.4928C2.65461 42.1769 4.53058 42.6444 4.76435 43.879C4.88641 44.5075 4.81078 45.1584 4.54785 45.7423C3.90986 47.085 3.20392 47.8025 3.70487 48.224C4.20582 48.6455 5.54745 49.6577 5.54745 49.6577C5.54745 49.6577 4.27377 51.285 4.97855 51.7859C5.85493 52.4078 6.96853 52.6945 7.2668 53.8588C7.3541 54.7814 7.2618 55.7122 6.99502 56.5996C6.90448 57.4679 7.01805 58.3453 7.32668 59.162C7.74236 60.7952 9.3739 61.8085 11.0222 61.4571C14.4215 60.6312 17.7733 59.6213 21.0631 58.4318Z" fill="#F3D55B"/>
<path d="M11.1314 19.4705C10.828 19.4038 10.5644 19.2173 10.4004 18.9534C10.2365 18.6895 10.1861 18.3705 10.2608 18.069C10.4418 17.2689 10.6686 16.4799 10.9403 15.7059C11.7412 13.4895 12.9822 11.458 14.5885 9.73361C16.4588 7.75745 19.5255 6.33406 23.7047 5.5026C24.1083 5.42237 24.5241 5.56356 24.7953 5.87298C25.0666 6.18241 25.1522 6.61306 25.0199 7.00271C24.8876 7.39237 24.5574 7.68183 24.1538 7.76205C20.4525 8.49793 17.7969 9.6933 16.2618 11.3159C14.8702 12.8128 13.7953 14.5755 13.1018 16.4982C12.8606 17.1905 12.6592 17.8961 12.4984 18.6114C12.3534 19.2227 11.7451 19.6049 11.1314 19.4705Z" fill="#F5EFCA"/>
<path d="M9.7185 24.6907C10.3545 24.6907 10.8701 24.1751 10.8701 23.5391C10.8701 22.903 10.3545 22.3875 9.7185 22.3875C9.08249 22.3875 8.56689 22.903 8.56689 23.5391C8.56689 24.1751 9.08249 24.6907 9.7185 24.6907Z" fill="#F5EFCA"/>
<path d="M38.5429 14.9815C38.0728 14.9809 37.6502 14.6946 37.4753 14.2583L35.6903 9.81422C35.5247 9.43017 35.5803 8.98652 35.8356 8.65523C36.0909 8.32395 36.5058 8.15712 36.9193 8.21941C37.3329 8.28171 37.6802 8.56333 37.8266 8.95512L39.6116 13.4003C39.7543 13.7552 39.7114 14.1578 39.4972 14.4748C39.283 14.7917 38.9254 14.9815 38.5429 14.9815Z" fill="#3D324C"/>
<path d="M49.1622 17.7799C48.6727 17.7806 48.2363 17.4719 48.074 17.0102C47.9117 16.5484 48.059 16.0345 48.4412 15.7289L54.0265 11.2606C54.5233 10.8631 55.2482 10.9436 55.6457 11.4403C56.0432 11.937 55.9628 12.6619 55.4661 13.0595L49.8808 17.5277C49.6768 17.6908 49.4234 17.7798 49.1622 17.7799Z" fill="#3D324C"/>
<path d="M59.3414 39.9599C59.0466 39.96 58.7631 39.8471 58.5491 39.6444L47.8748 29.5459C47.5759 29.2631 47.4506 28.8422 47.5461 28.4419C47.6416 28.0416 47.9434 27.7227 48.3379 27.6053C48.7323 27.4879 49.1594 27.5898 49.4583 27.8726L60.1325 37.9711C60.4756 38.2951 60.5863 38.7955 60.4119 39.234C60.2374 39.6724 59.8132 39.9601 59.3414 39.9599Z" fill="#3D324C"/>
<path d="M38.1066 40.8927C38.0225 40.893 37.9386 40.8838 37.8567 40.865C37.2361 40.7274 36.8443 40.113 36.9815 39.4923L38.8344 31.1316C38.9233 30.7299 39.2197 30.406 39.6121 30.2821C40.0045 30.1582 40.4331 30.253 40.7366 30.5309C41.0401 30.8087 41.1724 31.2274 41.0835 31.6291L39.2305 39.9898C39.1139 40.5171 38.6466 40.8925 38.1066 40.8927Z" fill="#3D324C"/>
<path d="M26.4984 30.4142C25.9542 30.4149 25.4837 30.0345 25.3705 29.5021C25.2573 28.9698 25.5323 28.4308 26.0297 28.21L33.0776 25.0765C33.6589 24.818 34.3397 25.0796 34.5983 25.6609C34.8568 26.2423 34.5951 26.9231 34.0138 27.1816L26.966 30.314C26.8189 30.38 26.6596 30.4141 26.4984 30.4142Z" fill="#3D324C"/>
<path d="M41.9634 31.5992C47.0515 31.5992 51.1762 27.4745 51.1762 22.3863C51.1762 17.2982 47.0515 13.1735 41.9634 13.1735C36.8752 13.1735 32.7505 17.2982 32.7505 22.3863C32.7505 27.4745 36.8752 31.5992 41.9634 31.5992Z" fill="#FF5364"/>
<path d="M59.2375 14.325C62.4176 14.325 64.9956 11.7471 64.9956 8.567C64.9956 5.38692 62.4176 2.80896 59.2375 2.80896C56.0575 2.80896 53.4795 5.38692 53.4795 8.567C53.4795 11.7471 56.0575 14.325 59.2375 14.325Z" fill="#2FA8CC"/>
<path d="M62.6924 46.57C65.2364 46.57 67.2988 44.5077 67.2988 41.9636C67.2988 39.4195 65.2364 37.3572 62.6924 37.3572C60.1483 37.3572 58.0859 39.4195 58.0859 41.9636C58.0859 44.5077 60.1483 46.57 62.6924 46.57Z" fill="#FB7B76"/>
<path d="M37.3572 46.5701C39.2652 46.5701 40.812 45.0233 40.812 43.1152C40.812 41.2072 39.2652 39.6604 37.3572 39.6604C35.4491 39.6604 33.9023 41.2072 33.9023 43.1152C33.9023 45.0233 35.4491 46.5701 37.3572 46.5701Z" fill="#2FA8CC"/>
<path d="M21.2346 37.3573C24.4147 37.3573 26.9926 34.7793 26.9926 31.5992C26.9926 28.4192 24.4147 25.8412 21.2346 25.8412C18.0545 25.8412 15.4766 28.4192 15.4766 31.5992C15.4766 34.7793 18.0545 37.3573 21.2346 37.3573Z" fill="#FB7B76"/>
<path d="M35.0537 9.71861C37.5978 9.71861 39.6601 7.65624 39.6601 5.11217C39.6601 2.56811 37.5978 0.505737 35.0537 0.505737C32.5096 0.505737 30.4473 2.56811 30.4473 5.11217C30.4473 7.65624 32.5096 9.71861 35.0537 9.71861Z" fill="#2FA8CC"/>
<path d="M40.812 28.1444C44.6281 28.1444 47.7216 25.0508 47.7216 21.2347C47.7216 17.4186 44.6281 14.3251 40.812 14.3251C36.9959 14.3251 33.9023 17.4186 33.9023 21.2347C33.9023 25.0508 36.9959 28.1444 40.812 28.1444Z" fill="#FB7B76"/>
<path d="M20.0828 33.9025C21.9908 33.9025 23.5376 32.3557 23.5376 30.4476C23.5376 28.5396 21.9908 26.9928 20.0828 26.9928C18.1747 26.9928 16.6279 28.5396 16.6279 30.4476C16.6279 32.3557 18.1747 33.9025 20.0828 33.9025Z" fill="#FDB0AD"/>
<path d="M61.5405 43.1152C62.8126 43.1152 63.8437 42.084 63.8437 40.812C63.8437 39.54 62.8126 38.5088 61.5405 38.5088C60.2685 38.5088 59.2373 39.54 59.2373 40.812C59.2373 42.084 60.2685 43.1152 61.5405 43.1152Z" fill="#FDB0AD"/>
<path d="M33.9023 6.26378C35.1744 6.26378 36.2056 5.2326 36.2056 3.96057C36.2056 2.68853 35.1744 1.65735 33.9023 1.65735C32.6303 1.65735 31.5991 2.68853 31.5991 3.96057C31.5991 5.2326 32.6303 6.26378 33.9023 6.26378Z" fill="#67B9CC"/>
<path d="M58.0862 10.8702C59.9942 10.8702 61.541 9.32345 61.541 7.4154C61.541 5.50735 59.9942 3.96057 58.0862 3.96057C56.1781 3.96057 54.6313 5.50735 54.6313 7.4154C54.6313 9.32345 56.1781 10.8702 58.0862 10.8702Z" fill="#67B9CC"/>
<path d="M37.3569 44.2668C38.629 44.2668 39.6601 43.2356 39.6601 41.9636C39.6601 40.6916 38.629 39.6604 37.3569 39.6604C36.0849 39.6604 35.0537 40.6916 35.0537 41.9636C35.0537 43.2356 36.0849 44.2668 37.3569 44.2668Z" fill="#67B9CC"/>
</svg>
